# xmcd CD database file generated by LOLA_Freedb v0.9beta0
# 
# Track frame offsets:
#      150
#      10417
#      19405
#      29560
#      41480
#      51412
#      61120
#      73223
#      83538
#      96412
#      108012
#      121944
#      134825
#      145928
#      157084
#      169981
#      183042
#      192725
#      204427
#      215200
#      228425
#      242002
#      254770
#      265539
#      278217
# 
# Disc length: 3873 seconds
# 
# Revision: 0 
# Processed by: cddbd v1.5.2PL0 Copyright (c) Steve Scherf et al.
# Submitted via: LOLA_Freedb v0.9beta0
# 
DISCID=7e0f1f19
DTITLE=Diversen - The Best Of Sun Records
DYEAR=2007
DGENRE=
TTITLE0=Elvis Presley - Good Rockin'Tonight
TTITLE1=Elvis Presley - That's All Right
TTITLE2=Elvis Presley - You're A Heartbreaker
TTITLE3=Elvis Presley - I'm Left, You're Right, She's Gone
TTITLE4=Roy Orbison - Ooby Dooby
TTITLE5=Roy Orbison - Go!Go!Go!
TTITLE6=Carl Perkins - Gone,Gone,Gone
TTITLE7=Carl Perkins - Blue Suede Shoes
TTITLE8=Carl Perkins - Honey Don't
TTITLE9=Carl Perkins - Sure To Fall
TTITLE10=Carl Perkins - Tennessee
TTITLE11=Carl Perkins - Boppin' The Blues
TTITLE12=Carl Perkins - Dixie Fried
TTITLE13=Carl Perkins - I'm Sorry, I'm Not Sorry
TTITLE14=Warren Smith - Rock 'n' Roll Ruby
TTITLE15=Barbara Pittman - I Need A Man
TTITLE16=Sonny Burgess - Ain't Got A Thing
TTITLE17=Little Junior's Blue Flames - Love My Baby
TTITLE18=Little Junior's Blue Flames - Mystery Train
TTITLE19=Little Junior's Blue Flames - Feelin'Good
TTITLE20=Johnny London - Drivin' Slow
TTITLE21=Rufus Thomas Jr. - Bear Cat
TTITLE22=Rufus Thomas Jr. - Walking In The Rain
TTITLE23=Rufus Thomas Jr. - Tiger Man
TTITLE24=Rufus Thomas Jr. - Save That Money
EXTD=CD 1
EXTT0=1954
EXTT1=1954
EXTT2=1954
EXTT3=1955
EXTT4=1956
EXTT5=1956
EXTT6=1955
EXTT7=1956
EXTT8=1956
EXTT9=1955
EXTT10=1955
EXTT11=1956
EXTT12=1956
EXTT13=1956
EXTT14=1956
EXTT15=1956
EXTT16=1956
EXTT17=1953
EXTT18=1953
EXTT19=1953
EXTT20=1952
EXTT21=1953
EXTT22=1953
EXTT23=1953
EXTT24=1953
PLAYORDER=
